<svg width="28" height="28" viewBox="0 0 28 28" fill="none" xmlns="http://www.w3.org/2000/svg">
<path d="M12.66 0.374062L3.34022 5.97844C2.93278 6.22348 2.59445 6.57589 2.35922 7.00027C2.12398 7.42465 2.00013 7.90604 2.00012 8.39606V19.6043C2.00013 20.0943 2.12398 20.5757 2.35922 21C2.59445 21.4244 2.93278 21.7768 3.34022 22.0219L9.08007 25.4743C5.86233 23.5388 6.54611 20.4648 8.23819 17.464C9.43475 15.3421 14.3475 6.46426 17.1223 1.44753L15.3389 0.374903C14.9316 0.130137 14.4697 0.00121594 13.9996 0.00106824C13.5294 0.000920544 13.0674 0.129552 12.66 0.374062Z" fill="url(#paint0_linear_1392_2608)"/>
<path d="M25.9999 19.6043V8.3961C26 7.90605 25.8762 7.42461 25.6409 7.00022C25.4057 6.57582 25.0673 6.22342 24.6598 5.97847L15.3416 0.374097C14.9342 0.129062 14.472 6.10352e-05 14.0015 6.10352e-05C13.531 6.10352e-05 13.0688 0.129062 12.6614 0.374097L6.91913 3.82648C10.1371 1.89104 12.3514 4.04555 14.0004 7.07214C15.1665 9.21263 20.092 18.0829 22.8767 23.0945L24.6601 22.0219C25.0675 21.7769 25.4058 21.4245 25.641 21.0001C25.8762 20.5757 26 20.0943 25.9999 19.6043Z" fill="url(#paint1_linear_1392_2608)"/>
<path d="M25.9999 12.6998C25.9999 16.5707 23.1018 17.4902 19.7607 17.4641C18.1516 17.4517 13.0756 17.4512 8.2452 17.4543L8.23955 17.4641C6.54746 20.4654 5.86368 23.5391 9.08115 25.474L12.66 27.6263C13.0675 27.8712 13.5297 28.0001 14.0001 28.0001C14.4706 28.0001 14.9327 27.8712 15.3402 27.6263L24.6584 22.0219C25.0659 21.7769 25.4043 21.4245 25.6396 21.0001C25.8749 20.5758 25.9987 20.0943 25.9988 19.6043L25.9999 12.6998Z" fill="url(#paint2_linear_1392_2608)"/>
<defs>
<linearGradient id="paint0_linear_1392_2608" x1="10.6802" y1="2.82859" x2="-5.31009" y2="18.0168" gradientUnits="userSpaceOnUse">
<stop stop-color="#BE2F6D"/>
<stop offset="0.097" stop-color="#BE2F6D"/>
<stop offset="0.383" stop-color="#A61860"/>
<stop offset="0.638" stop-color="#A61860"/>
<stop offset="0.853" stop-color="#5B0D3F"/>
<stop offset="1" stop-color="#5B0D3F"/>
</linearGradient>
<linearGradient id="paint1_linear_1392_2608" x1="22.489" y1="18.1292" x2="10.3363" y2="1.11996" gradientUnits="userSpaceOnUse">
<stop stop-color="#125099"/>
<stop offset="0.097" stop-color="#125099"/>
<stop offset="0.383" stop-color="#075897"/>
<stop offset="0.638" stop-color="#075897"/>
<stop offset="0.853" stop-color="#06A3C2"/>
<stop offset="1" stop-color="#06A3C2"/>
</linearGradient>
<linearGradient id="paint2_linear_1392_2608" x1="8.19982" y1="20.5642" x2="29.2544" y2="19.9632" gradientUnits="userSpaceOnUse">
<stop stop-color="#F34C18"/>
<stop offset="0.097" stop-color="#F34C18"/>
<stop offset="0.383" stop-color="#F96329"/>
<stop offset="0.638" stop-color="#EF794B"/>
<stop offset="0.853" stop-color="#FBB823"/>
<stop offset="1" stop-color="#FFCD30"/>
</linearGradient>
</defs>
</svg>
